<svg width="40" height="40" viewBox="0 0 40 40" fill="none" xmlns="http://www.w3.org/2000/svg">
<circle opacity="0.5" cx="20" cy="20" r="19.5" transform="rotate(90 20 20)" stroke="white"/>
<path d="M22.75 21.8984C22.8203 21.8984 22.8828 21.8672 22.9297 21.8203L23.3203 21.4297C23.3672 21.3828 23.3984 21.3125 23.3984 21.25C23.3984 21.1875 23.3672 21.1172 23.3203 21.0703L19.6797 17.4297C19.6328 17.3828 19.5625 17.3516 19.5 17.3516C19.4375 17.3516 19.3672 17.3828 19.3203 17.4297L15.6797 21.0703C15.6328 21.1172 15.6016 21.1875 15.6016 21.25C15.6016 21.3125 15.6328 21.3828 15.6797 21.4297L16.0703 21.8203C16.1172 21.8672 16.1875 21.8984 16.25 21.8984C16.3125 21.8984 16.3828 21.8672 16.4297 21.8203L19.5 18.75L22.5703 21.8203C22.6172 21.8672 22.6875 21.8984 22.75 21.8984Z" fill="white"/>
</svg>
