<svg width="40" height="40" viewBox="0 0 40 40" fill="none" xmlns="http://www.w3.org/2000/svg">
<circle opacity="0.5" cx="20" cy="20" r="19.5" transform="rotate(-90 20 20)" stroke="white"/>
<path d="M17.25 18.1016C17.1797 18.1016 17.1172 18.1328 17.0703 18.1797L16.6797 18.5703C16.6328 18.6172 16.6016 18.6875 16.6016 18.75C16.6016 18.8125 16.6328 18.8828 16.6797 18.9297L20.3203 22.5703C20.3672 22.6172 20.4375 22.6484 20.5 22.6484C20.5625 22.6484 20.6328 22.6172 20.6797 22.5703L24.3203 18.9297C24.3672 18.8828 24.3984 18.8125 24.3984 18.75C24.3984 18.6875 24.3672 18.6172 24.3203 18.5703L23.9297 18.1797C23.8828 18.1328 23.8125 18.1016 23.75 18.1016C23.6875 18.1016 23.6172 18.1328 23.5703 18.1797L20.5 21.25L17.4297 18.1797C17.3828 18.1328 17.3125 18.1016 17.25 18.1016Z" fill="white"/>
</svg>
